<?xml version="1.0" encoding="UTF-8"?><svg id="a" xmlns="http://www.w3.org/2000/svg" width="630.2" height="702.2" viewBox="0 0 630.2 702.2"><defs><style>.c{fill:#fff;}</style></defs><g id="b"><path class="c" d="m307.5,629.9L.2,451.2s-3.5,65.5,20,89c20.8,20.8,199.8,121.9,240,144.5,3.8,2.1,30,17.5,53,17.5s50-14.7,52.4-16.2l226.6-131.8s36-26,36-55,2-164,2-164l-276-158c-13.7-7.6-27.4-11.7-40.5-12.4-11.4-.6-27.4,5.1-45.1,14.1-7.6,3.9-178.7,104.7-178.7,104.7-8.7,5.1-19.7-1.2-19.7-11.3v-61.2s7-11,15-14c8-3,228-129.2,228-129.2l317,181.9v-35.4c0-10.2-2-20.2-6.1-29.5-4.9-11.3-12.9-25.6-23.9-32.7-18.4-12-213.8-123.9-244.9-141.6-4-2.3-8.3-4.2-12.7-5.7-6.9-2.3-17.2-4.8-28.4-4.8s-21.9,2.6-29.1,4.9-9.4,3.6-13.8,6.1L36.2,147.2S0,165.3,0,205.2v124.3l74.2,45.6,228.3-136.6c.4-.2,6.6-4.4,11.2-4.4s12.5,4,12.5,4l225,131s10,6,10,10v107s-1,8-8,12c-7,4-231,133-231,133l-14.7-1.3Z"/></g><path class="c" d="m160.2,485.2l70,39,83-48.2,90.7,48.2,68.3-38-126-70s-14-9-33-9-31,8-31,8l-122,70Z"/></svg>